<svg width="19" height="21" viewBox="0 0 19 21" fill="none" xmlns="http://www.w3.org/2000/svg">
<path d="M16.8541 11.168H17.8806C17.8955 11.1508 17.9128 11.141 17.9128 11.1337C17.9326 10.0227 17.9649 8.90934 17.6525 7.82775C16.7178 4.59765 14.6029 2.51522 11.2855 1.77866C7.17477 0.865914 3.15576 3.07315 1.64088 6.95171C1.30121 7.82285 1.13013 8.72826 1.10782 9.66058C1.09542 10.1549 1.10782 10.6467 1.10782 11.1631H2.17394V16.4683C1.00865 16.6738 0.0491395 15.8516 0.0342635 14.8557C0.0069907 13.0424 -0.0301995 11.2242 0.0417015 9.41343C0.138396 6.98107 1.11774 4.89864 2.87559 3.18816C4.2789 1.81537 5.96733 0.951561 7.9161 0.638339C10.6706 0.195425 13.1773 0.814526 15.374 2.51767C17.3599 4.05686 18.5252 6.09035 18.907 8.55452C18.9665 8.94115 18.9913 9.33757 18.9938 9.7291C19.0037 11.3906 18.9988 13.0546 18.9988 14.7162C18.9988 15.7341 18.2252 16.4927 17.1963 16.4952C17.0872 16.4952 16.9781 16.4952 16.8566 16.4952V11.168H16.8541Z" fill="#6AE2FF"/>
<path d="M8.23435 6.0554C8.23435 5.41518 8.23435 4.79685 8.23435 4.18126C8.23435 3.72709 8.43312 3.5 8.82586 3.5C9.27369 3.5 9.71912 3.5 10.167 3.5C10.5717 3.5 10.7657 3.72435 10.7657 4.19494C10.7657 4.80506 10.7657 5.41245 10.7657 6.0554C10.8399 6.0554 10.9045 6.0554 10.9716 6.0554C11.4625 6.0554 11.9535 6.0554 12.442 6.0554C12.7893 6.0554 13 6.29617 13 6.69015C13 7.22914 13 7.76813 13 8.30711C13 8.71204 12.7893 8.94733 12.43 8.94733C11.884 8.94733 11.338 8.94733 10.7657 8.94733C10.7657 9.03215 10.7657 9.10602 10.7657 9.18263C10.7657 9.7435 10.7657 10.3044 10.7657 10.8625C10.7657 11.2592 10.5549 11.5 10.2101 11.5C9.73828 11.5 9.26651 11.5 8.79473 11.5C8.4403 11.5 8.23435 11.2592 8.23435 10.8488C8.23435 10.225 8.23435 9.60123 8.23435 8.94733C8.16011 8.94733 8.09306 8.94733 8.0284 8.94733C7.53746 8.94733 7.04653 8.94733 6.55799 8.94733C6.21074 8.94733 6.00239 8.70657 6 8.31259C6 7.7736 6 7.23461 6 6.69562C6 6.28796 6.20835 6.0554 6.56996 6.0554C7.11598 6.0554 7.66199 6.0554 8.23435 6.0554Z" fill="#6AE2FF"/>
<path d="M6 13.9986C6 14.7922 6 15.588 6 16.3816C6 16.9614 5.4392 17.4332 4.68844 17.4927C3.89246 17.5566 3.20201 17.1951 3.02714 16.6197C3.00302 16.5426 3 16.461 3 16.3816C3 14.7922 3 13.2049 3 11.6155C3 10.9806 3.65126 10.5 4.49849 10.5C5.34874 10.5 5.99698 10.9784 6 11.6133C6 12.4069 6 13.2027 6 13.9964V13.9986Z" fill="#6AE2FF"/>
<path d="M13 13.9967C13 13.2025 13 12.4061 13 11.6119C13 10.9787 13.6543 10.5 14.5045 10.5C15.3518 10.5 16 10.9809 16 11.6185C16 13.2091 16 14.7975 16 16.3881C16 17.0213 15.3457 17.5022 14.4955 17.5C13.6482 17.5 13.003 17.0169 13 16.3815C13 15.5873 13 14.7909 13 13.9967Z" fill="#6AE2FF"/>
<path d="M17.0266 17.7808C17.3502 17.6833 17.6627 17.5916 17.9752 17.5C18.1381 18.9837 17.4864 20.2103 16.3882 20.4764C16.3146 20.4941 16.2387 20.5 16.165 20.5C15.1517 20.5 14.1406 20.5 13.1272 20.5C13.087 20.5 13.0491 20.5 13 20.5V19.2143H13.1808C14.1004 19.2143 15.02 19.2143 15.9396 19.2143C16.6583 19.2143 16.9886 18.7916 17.0176 17.8458C17.0176 17.8163 17.0243 17.7867 17.0243 17.7778L17.0266 17.7808Z" fill="#6AE2FF"/>
<path d="M12 20.4889C11.2912 20.4889 10.604 20.5198 9.91928 20.4786C9.3792 20.4477 8.98138 19.7201 9.00067 18.9033C9.01755 18.1654 9.47565 17.5202 9.99643 17.5065C10.3219 17.4962 10.645 17.4996 10.9705 17.5065C11.5347 17.5134 11.9928 18.162 11.9976 18.9651C12.0024 19.4627 11.9976 19.9604 11.9976 20.4889H12Z" fill="#6AE2FF"/>
</svg>
