<svg width="17" height="17" viewBox="0 0 17 17" fill="none" xmlns="http://www.w3.org/2000/svg">
<path d="M1.9375 5.875C1.52329 5.875 1.1875 6.21079 1.1875 6.625C1.1875 7.03921 1.52329 7.375 1.9375 7.375V5.875ZM15.0625 7.375C15.4767 7.375 15.8125 7.03921 15.8125 6.625C15.8125 6.21079 15.4767 5.875 15.0625 5.875V7.375ZM2.01623 10.0937C1.60202 10.0937 1.26623 10.4295 1.26623 10.8437C1.26623 11.2579 1.60202 11.5937 2.01623 11.5937V10.0937ZM15.1412 11.5937C15.5554 11.5937 15.8912 11.2579 15.8912 10.8437C15.8912 10.4295 15.5554 10.0937 15.1412 10.0937V11.5937ZM15.25 8.5C15.25 12.2279 12.2279 15.25 8.5 15.25V16.75C13.0563 16.75 16.75 13.0563 16.75 8.5H15.25ZM8.5 15.25C4.77208 15.25 1.75 12.2279 1.75 8.5H0.25C0.25 13.0563 3.94365 16.75 8.5 16.75V15.25ZM1.75 8.5C1.75 4.77208 4.77208 1.75 8.5 1.75V0.25C3.94365 0.25 0.25 3.94365 0.25 8.5H1.75ZM8.5 1.75C12.2279 1.75 15.25 4.77208 15.25 8.5H16.75C16.75 3.94365 13.0563 0.25 8.5 0.25V1.75ZM8.5 15.25C8.2951 15.25 8.04078 15.1582 7.74409 14.8714C7.44378 14.5811 7.13908 14.1248 6.86692 13.5027C6.32359 12.2608 5.96875 10.4926 5.96875 8.5H4.46875C4.46875 10.6495 4.84844 12.6314 5.49269 14.1039C5.81432 14.8391 6.21667 15.4811 6.70149 15.9498C7.18992 16.422 7.79881 16.75 8.5 16.75V15.25ZM5.96875 8.5C5.96875 6.50736 6.32359 4.73922 6.86692 3.49731C7.13908 2.87525 7.44378 2.41893 7.74409 2.1286C8.04078 1.84176 8.2951 1.75 8.5 1.75V0.25C7.79881 0.25 7.18992 0.577973 6.70149 1.05018C6.21667 1.51889 5.81432 2.16092 5.49269 2.89609C4.84844 4.36864 4.46875 6.35051 4.46875 8.5H5.96875ZM8.5 16.75C9.2012 16.75 9.81008 16.422 10.2985 15.9498C10.7833 15.4811 11.1857 14.8391 11.5073 14.1039C12.1516 12.6314 12.5312 10.6495 12.5312 8.5H11.0312C11.0312 10.4926 10.6764 12.2608 10.1331 13.5027C9.86092 14.1248 9.55622 14.5811 9.25591 14.8714C8.95922 15.1582 8.7049 15.25 8.5 15.25V16.75ZM12.5312 8.5C12.5312 6.35051 12.1516 4.36864 11.5073 2.89609C11.1857 2.16092 10.7833 1.51889 10.2985 1.05018C9.81008 0.577973 9.2012 0.25 8.5 0.25V1.75C8.7049 1.75 8.95922 1.84176 9.25591 2.1286C9.55622 2.41893 9.86092 2.87525 10.1331 3.49731C10.6764 4.73922 11.0312 6.50736 11.0312 8.5H12.5312ZM1.9375 7.375H15.0625V5.875H1.9375V7.375ZM2.01623 11.5937H15.1412V10.0937H2.01623V11.5937Z" fill="white"/>
</svg>
