<svg width="15" height="15" viewBox="0 0 15 15" fill="none" xmlns="http://www.w3.org/2000/svg">
<path d="M12.2163 10.1818C12.2163 10.1818 11.5361 10.8457 11.3694 11.0403C11.0978 11.3282 10.7778 11.4642 10.3583 11.4642C10.318 11.4642 10.275 11.4642 10.2347 11.4615C9.43608 11.4109 8.69396 11.1016 8.13737 10.8377C6.61549 10.1072 5.27913 9.07008 4.16864 7.75572C3.25175 6.65999 2.63869 5.64689 2.23268 4.55915C1.98262 3.89531 1.8912 3.3781 1.93153 2.89022C1.95842 2.57829 2.07942 2.31969 2.30259 2.09841L3.21948 1.18929C3.35124 1.06665 3.49105 1 3.62819 1C3.79758 1 3.93471 1.10131 4.02076 1.18662C4.02344 1.18929 4.02613 1.19195 4.02882 1.19462C4.19284 1.34658 4.34879 1.50388 4.51281 1.67184C4.59617 1.75715 4.68221 1.84247 4.76825 1.93045L5.50231 2.65827C5.78732 2.94087 5.78732 3.20214 5.50231 3.48474C5.42433 3.56206 5.34904 3.63937 5.27107 3.71402C5.0452 3.9433 5.22263 3.76738 4.9887 3.97533C4.98332 3.98066 4.97795 3.98332 4.97526 3.98866C4.74402 4.21793 4.78704 4.44188 4.83544 4.59384C4.83813 4.60184 4.84082 4.60984 4.8435 4.61784C5.03441 5.0764 5.3033 5.50829 5.712 6.02284L5.71469 6.0255C6.45681 6.93195 7.23926 7.63845 8.10238 8.17966C8.21262 8.24897 8.32555 8.30496 8.4331 8.35828C8.5299 8.40627 8.62132 8.45159 8.6993 8.49958C8.71005 8.50491 8.72081 8.51291 8.73156 8.51824C8.82298 8.56357 8.90903 8.58489 8.99776 8.58489C9.22093 8.58489 9.36075 8.44626 9.40646 8.40094L9.93351 7.87836C10.0249 7.78772 10.1701 7.67841 10.3395 7.67841C10.5062 7.67841 10.6434 7.78238 10.7267 7.87303C10.7294 7.8757 10.7294 7.87569 10.7321 7.87836L12.2136 9.34735C12.4906 9.61928 12.2163 10.1818 12.2163 10.1818Z" fill="#2F52E0" stroke="#2F52E0" stroke-linecap="round" stroke-linejoin="round"/>
</svg>
